<?xml version="1.0" encoding="utf-8"?>
<!-- Generator: Adobe Illustrator 22.0.1, SVG Export Plug-In . SVG Version: 6.00 Build 0)  -->
<svg version="1.1" id="Layer_1" xmlns="http://www.w3.org/2000/svg" xmlns:xlink="http://www.w3.org/1999/xlink" x="0px" y="0px"
	 viewBox="0 0 96 162.4" style="enable-background:new 0 0 96 162.4;" xml:space="preserve">
<style type="text/css">
	.st0{enable-background:new    ;}
	.st1{fill:#112D4C;}
	.st2{fill:#D82B2B;}
	.st3{fill:#DB7676;}
	.st4{fill:#FFFFFF;}
	.st5{fill:#F4C5C5;}
	.st6{fill:#BFBFBF;}
</style>
<g id="Group_43" transform="translate(-176 -684)">
	<g class="st0">
		<path class="st1" d="M194.5,695c-0.3-0.5-0.6-0.9-0.9-1.5c-0.3-0.5-0.7-1.1-1-1.6s-0.7-1-1.1-1.5s-0.7-1-1.1-1.4v6h-1.5v-8.3h1.2
			c0.3,0.3,0.7,0.7,1,1.2c0.4,0.5,0.7,0.9,1.1,1.4c0.4,0.5,0.7,1,1.1,1.5c0.3,0.5,0.7,1,0.9,1.4v-5.5h1.5v8.3L194.5,695L194.5,695z"
			/>
		<path class="st1" d="M201,695.2c-0.6,0-1.1-0.1-1.5-0.2c-0.4-0.2-0.7-0.4-1-0.7s-0.5-0.6-0.6-1s-0.2-0.8-0.2-1.3v-5.2h1.5v5.1
			c0,0.4,0,0.7,0.1,1s0.2,0.5,0.4,0.7s0.3,0.3,0.6,0.4c0.2,0.1,0.5,0.1,0.7,0.1c0.3,0,0.5,0,0.7-0.1s0.4-0.2,0.6-0.4
			c0.2-0.2,0.3-0.4,0.4-0.7c0.1-0.3,0.1-0.6,0.1-1v-5.1h1.5v5.2c0,0.5-0.1,0.9-0.2,1.3c-0.1,0.4-0.3,0.7-0.6,1s-0.6,0.5-1,0.7
			C202.1,695.1,201.6,695.2,201,695.2z"/>
		<path class="st1" d="M208.1,686.7c0.2,0.3,0.4,0.7,0.6,1.1c0.2,0.4,0.4,0.9,0.7,1.4c0.2,0.5,0.4,1,0.7,1.5c0.2,0.5,0.4,1,0.6,1.4
			c0.2-0.4,0.4-0.9,0.6-1.4c0.2-0.5,0.4-1,0.7-1.5c0.2-0.5,0.4-0.9,0.7-1.4c0.2-0.4,0.4-0.8,0.6-1.1h1.4c0.1,0.6,0.1,1.3,0.2,1.9
			c0.1,0.7,0.1,1.4,0.2,2.1c0.1,0.7,0.1,1.4,0.1,2.2c0,0.7,0.1,1.4,0.1,2.1h-1.5c0-1-0.1-2-0.1-3s-0.1-2-0.2-3
			c-0.1,0.2-0.2,0.4-0.3,0.7s-0.2,0.5-0.4,0.8c-0.1,0.3-0.3,0.6-0.4,0.9c-0.1,0.3-0.3,0.6-0.4,0.9c-0.1,0.3-0.3,0.6-0.4,0.8
			c-0.1,0.3-0.2,0.5-0.3,0.7H210c-0.1-0.2-0.2-0.4-0.3-0.7s-0.2-0.5-0.4-0.8c-0.1-0.3-0.3-0.6-0.4-0.9c-0.1-0.3-0.3-0.6-0.4-0.9
			c-0.1-0.3-0.3-0.6-0.4-0.8c-0.1-0.3-0.2-0.5-0.3-0.7c-0.1,1-0.2,2-0.2,3s-0.1,2-0.1,3H206c0-0.7,0.1-1.4,0.1-2.1
			c0-0.7,0.1-1.5,0.1-2.2c0.1-0.7,0.1-1.4,0.2-2.1c0.1-0.7,0.1-1.3,0.2-1.9H208.1z"/>
		<path class="st1" d="M219.4,695.1c-0.4,0-0.9,0-1.3,0s-0.8-0.1-1.2-0.2v-8.1c0.2,0,0.4-0.1,0.6-0.1c0.2,0,0.4,0,0.6-0.1
			c0.2,0,0.4,0,0.6,0s0.4,0,0.6,0c0.5,0,1,0,1.4,0.1s0.8,0.2,1.1,0.4s0.6,0.4,0.7,0.7c0.2,0.3,0.3,0.6,0.3,1.1c0,0.4-0.1,0.7-0.3,1
			s-0.5,0.5-0.8,0.7c0.5,0.2,0.9,0.4,1.1,0.7c0.2,0.3,0.4,0.7,0.4,1.2c0,0.9-0.3,1.5-0.9,1.9S220.7,695.1,219.4,695.1z M218.4,690.1
			h1.1c0.6,0,1-0.1,1.4-0.2c0.3-0.2,0.5-0.5,0.5-0.9s-0.2-0.7-0.5-0.9s-0.8-0.3-1.3-0.3c-0.2,0-0.4,0-0.6,0c-0.2,0-0.3,0-0.5,0
			L218.4,690.1L218.4,690.1z M218.4,691.3v2.5c0.2,0,0.3,0,0.5,0s0.4,0,0.5,0c0.3,0,0.6,0,0.9-0.1s0.5-0.1,0.7-0.2
			c0.2-0.1,0.4-0.2,0.5-0.4s0.2-0.4,0.2-0.6c0-0.5-0.2-0.8-0.5-1s-0.8-0.3-1.4-0.3L218.4,691.3L218.4,691.3z"/>
		<path class="st1" d="M224.7,695v-8.3h5.3v1.3h-3.8v2.1h3.4v1.3h-3.4v2.4h4.1v1.3L224.7,695L224.7,695z"/>
		<path class="st1" d="M234.1,686.6c1.2,0,2.1,0.2,2.8,0.7c0.6,0.4,1,1.1,1,2c0,1.1-0.6,1.9-1.7,2.3c0.2,0.2,0.3,0.4,0.5,0.7
			s0.4,0.5,0.6,0.9c0.2,0.3,0.4,0.6,0.6,0.9c0.2,0.3,0.3,0.6,0.5,1h-1.7c-0.2-0.3-0.3-0.6-0.5-0.9s-0.4-0.6-0.5-0.9
			c-0.2-0.3-0.4-0.5-0.5-0.8s-0.3-0.5-0.5-0.7c-0.1,0-0.2,0-0.3,0s-0.2,0-0.2,0h-0.7v3.1H232v-8.2c0.4-0.1,0.8-0.1,1.2-0.2
			C233.4,686.6,233.7,686.6,234.1,686.6z M234.2,687.9c-0.3,0-0.6,0-0.9,0v2.7h0.7c0.4,0,0.7,0,1-0.1c0.3,0,0.5-0.1,0.7-0.2
			c0.2-0.1,0.3-0.2,0.4-0.4c0.1-0.2,0.1-0.4,0.1-0.7s0-0.5-0.1-0.6c-0.1-0.2-0.2-0.3-0.4-0.4c-0.2-0.1-0.4-0.2-0.6-0.2
			S234.5,687.9,234.2,687.9z"/>
		<path class="st1" d="M250,690.8c0,0.7-0.1,1.3-0.3,1.9s-0.5,1-0.9,1.4s-0.8,0.6-1.3,0.8s-1,0.3-1.6,0.3s-1.1-0.1-1.6-0.3
			s-0.9-0.5-1.3-0.8s-0.7-0.8-0.9-1.4c-0.2-0.5-0.3-1.2-0.3-1.9s0.1-1.3,0.3-1.9c0.2-0.5,0.5-1,0.9-1.4s0.8-0.6,1.3-0.8
			s1-0.3,1.5-0.3s1.1,0.1,1.5,0.3c0.5,0.2,0.9,0.5,1.3,0.8c0.4,0.4,0.7,0.8,0.9,1.4C249.9,689.5,250,690.1,250,690.8z M243.5,690.8
			c0,0.5,0.1,0.9,0.2,1.2c0.1,0.4,0.3,0.7,0.5,0.9s0.5,0.5,0.8,0.6s0.6,0.2,1,0.2s0.7-0.1,1-0.2c0.3-0.1,0.6-0.3,0.8-0.6
			s0.4-0.6,0.5-0.9s0.2-0.8,0.2-1.2s-0.1-0.9-0.2-1.2s-0.3-0.7-0.5-0.9c-0.2-0.3-0.5-0.5-0.8-0.6s-0.6-0.2-1-0.2s-0.7,0.1-1,0.2
			c-0.3,0.1-0.6,0.3-0.8,0.6s-0.4,0.6-0.5,0.9C243.5,690,243.5,690.4,243.5,690.8z"/>
		<path class="st1" d="M251.6,695v-8.3h5.3v1.3h-3.7v2.1h3.3v1.3h-3.3v3.6L251.6,695L251.6,695z"/>
	</g>
	<g class="st0">
		<path class="st1" d="M182,708.2c-0.6,0-1.2-0.1-1.7-0.3s-0.9-0.5-1.3-0.8c-0.3-0.4-0.6-0.8-0.8-1.4c-0.2-0.5-0.3-1.2-0.3-1.8
			s0.1-1.3,0.3-1.8s0.5-1,0.9-1.4s0.8-0.7,1.3-0.8c0.5-0.2,1-0.3,1.6-0.3c0.3,0,0.7,0,0.9,0.1c0.3,0.1,0.5,0.1,0.7,0.2
			c0.2,0.1,0.4,0.1,0.5,0.2c0.1,0.1,0.2,0.1,0.3,0.2l-0.4,1.2c-0.2-0.1-0.5-0.2-0.8-0.3c-0.4-0.1-0.7-0.2-1.2-0.2
			c-0.4,0-0.7,0.1-1,0.2s-0.6,0.3-0.8,0.6s-0.4,0.6-0.5,0.9c-0.1,0.4-0.2,0.8-0.2,1.3c0,0.4,0,0.8,0.1,1.2s0.3,0.7,0.5,1
			s0.5,0.5,0.8,0.6s0.7,0.2,1.2,0.2s1-0.1,1.3-0.2c0.3-0.1,0.6-0.2,0.8-0.3l0.4,1.2c-0.1,0.1-0.2,0.1-0.4,0.2
			c-0.2,0.1-0.4,0.1-0.6,0.2c-0.2,0.1-0.5,0.1-0.8,0.1C182.6,708.2,182.3,708.2,182,708.2z"/>
		<path class="st1" d="M193.4,703.8c0,0.7-0.1,1.3-0.3,1.9s-0.5,1-0.9,1.4s-0.8,0.6-1.3,0.8s-1,0.3-1.6,0.3s-1.1-0.1-1.6-0.3
			s-0.9-0.5-1.3-0.8c-0.4-0.4-0.7-0.8-0.9-1.4c-0.2-0.5-0.3-1.2-0.3-1.9s0.1-1.3,0.3-1.9c0.2-0.5,0.5-1,0.9-1.4s0.8-0.6,1.3-0.8
			s1-0.3,1.5-0.3s1.1,0.1,1.5,0.3c0.5,0.2,0.9,0.5,1.3,0.8c0.4,0.4,0.7,0.8,0.9,1.4C193.3,702.5,193.4,703.1,193.4,703.8z
			 M186.9,703.8c0,0.5,0.1,0.9,0.2,1.2s0.3,0.7,0.5,0.9c0.2,0.3,0.5,0.5,0.8,0.6s0.6,0.2,1,0.2s0.7-0.1,1-0.2
			c0.3-0.1,0.6-0.3,0.8-0.6s0.4-0.6,0.5-0.9c0.1-0.4,0.2-0.8,0.2-1.2s-0.1-0.9-0.2-1.2c-0.1-0.4-0.3-0.7-0.5-0.9
			c-0.2-0.3-0.5-0.5-0.8-0.6s-0.6-0.2-1-0.2s-0.7,0.1-1,0.2c-0.3,0.1-0.6,0.3-0.8,0.6s-0.4,0.6-0.5,0.9
			C187,703,186.9,703.4,186.9,703.8z"/>
		<path class="st1" d="M197.2,708c-0.6-1.3-1.2-2.7-1.7-4.1s-1.1-2.8-1.6-4.2h1.7c0.2,0.6,0.4,1.1,0.6,1.7c0.2,0.6,0.4,1.2,0.6,1.7
			c0.2,0.6,0.4,1.1,0.6,1.6c0.2,0.5,0.4,1,0.6,1.5c0.2-0.4,0.4-0.9,0.6-1.4c0.2-0.5,0.4-1.1,0.6-1.6c0.2-0.6,0.4-1.1,0.6-1.7
			c0.2-0.6,0.4-1.2,0.6-1.7h1.6c-0.5,1.4-1,2.8-1.6,4.2s-1.1,2.8-1.7,4.1L197.2,708L197.2,708z"/>
		<path class="st1" d="M203,699.7h1.5v8.3H203V699.7z"/>
		<path class="st1" d="M213.6,703.8c0,0.7-0.1,1.3-0.3,1.9s-0.5,1-1,1.3c-0.4,0.4-0.9,0.6-1.5,0.8s-1.2,0.3-1.9,0.3
			c-0.3,0-0.7,0-1.1,0c-0.4,0-0.8-0.1-1.2-0.2v-8.1c0.4-0.1,0.8-0.1,1.2-0.2c0.4,0,0.8,0,1.2,0c0.7,0,1.3,0.1,1.9,0.2
			c0.6,0.2,1.1,0.4,1.5,0.8c0.4,0.3,0.7,0.8,1,1.3C213.5,702.5,213.6,703.1,213.6,703.8z M208.1,706.8c0.1,0,0.2,0,0.3,0
			s0.3,0,0.6,0c1,0,1.8-0.3,2.3-0.8s0.8-1.2,0.8-2.2c0-0.9-0.2-1.7-0.7-2.2s-1.2-0.8-2.3-0.8c-0.4,0-0.8,0-1,0L208.1,706.8
			L208.1,706.8z"/>
		<path class="st1" d="M214.5,703.9h3.2v1.3h-3.2V703.9z"/>
		<path class="st1" d="M219.1,701.4c0.5-0.2,0.9-0.4,1.4-0.7s0.9-0.6,1.2-1h1v8.3h-1.5v-6.4c-0.2,0.2-0.5,0.3-0.8,0.5
			s-0.6,0.3-0.9,0.4L219.1,701.4z"/>
		<path class="st1" d="M229.4,704.6c-0.2,0.1-0.4,0.2-0.6,0.2c-0.2,0-0.5,0.1-0.7,0.1c-0.5,0-0.9-0.1-1.3-0.2
			c-0.3-0.1-0.6-0.3-0.9-0.6c-0.2-0.2-0.4-0.5-0.5-0.8s-0.2-0.6-0.2-1c0-0.3,0.1-0.6,0.2-1c0.1-0.3,0.3-0.6,0.5-0.9
			c0.2-0.3,0.5-0.5,0.9-0.7s0.8-0.3,1.2-0.3c1,0,1.7,0.3,2.2,0.9c0.5,0.6,0.8,1.5,0.8,2.7c0,1.6-0.4,2.8-1.2,3.7s-2.1,1.3-3.8,1.3
			l-0.1-1.2c0.5,0,0.9,0,1.3-0.1c0.4-0.1,0.7-0.2,1-0.4s0.5-0.4,0.7-0.7C229.2,705.3,229.3,705,229.4,704.6z M228.3,703.7
			c0.2,0,0.5,0,0.7-0.1c0.2,0,0.4-0.1,0.6-0.2c0-0.1,0-0.2,0-0.2c0-0.1,0-0.1,0-0.2c0-0.3,0-0.6-0.1-0.9s-0.1-0.5-0.2-0.7
			c-0.1-0.2-0.3-0.4-0.4-0.5c-0.2-0.1-0.4-0.2-0.7-0.2c-0.2,0-0.4,0-0.6,0.1s-0.3,0.2-0.4,0.4c-0.1,0.2-0.2,0.3-0.2,0.5
			s-0.1,0.3-0.1,0.5c0,0.5,0.1,0.9,0.4,1.1C227.4,703.6,227.8,703.7,228.3,703.7z"/>
		<path class="st1" d="M239.2,708.2c-0.6,0-1.2-0.1-1.7-0.3s-0.9-0.5-1.3-0.8s-0.6-0.8-0.8-1.4c-0.2-0.5-0.3-1.2-0.3-1.8
			s0.1-1.3,0.3-1.8s0.5-1,0.9-1.4s0.8-0.7,1.3-0.8c0.5-0.2,1-0.3,1.6-0.3c0.3,0,0.7,0,0.9,0.1c0.3,0.1,0.5,0.1,0.7,0.2
			c0.2,0.1,0.4,0.1,0.5,0.2c0.1,0.1,0.2,0.1,0.3,0.2l-0.4,1.2c-0.2-0.1-0.5-0.2-0.8-0.3c-0.4-0.1-0.7-0.2-1.2-0.2
			c-0.4,0-0.7,0.1-1,0.2c-0.3,0.1-0.6,0.3-0.8,0.6c-0.2,0.2-0.4,0.6-0.5,0.9c-0.1,0.4-0.2,0.8-0.2,1.3c0,0.4,0,0.8,0.1,1.2
			s0.3,0.7,0.5,1s0.5,0.5,0.8,0.6s0.7,0.2,1.2,0.2s1-0.1,1.3-0.2c0.3-0.1,0.6-0.2,0.8-0.3l0.4,1.2c-0.1,0.1-0.2,0.1-0.4,0.2
			c-0.2,0.1-0.4,0.1-0.6,0.2c-0.2,0.1-0.5,0.1-0.8,0.1C239.8,708.2,239.5,708.2,239.2,708.2z"/>
		<path class="st1" d="M248.9,708c-0.1-0.3-0.2-0.7-0.3-1s-0.2-0.6-0.3-1h-3.5c-0.1,0.3-0.2,0.7-0.3,1s-0.2,0.6-0.3,1h-1.6
			c0.3-0.9,0.6-1.7,0.9-2.5c0.3-0.8,0.6-1.5,0.8-2.1s0.5-1.3,0.8-1.9c0.3-0.6,0.5-1.2,0.8-1.8h1.4c0.3,0.6,0.6,1.2,0.8,1.8
			c0.3,0.6,0.5,1.2,0.8,1.9s0.5,1.4,0.8,2.1s0.6,1.6,0.9,2.5H248.9z M246.4,701.3c-0.2,0.4-0.4,0.9-0.6,1.5c-0.2,0.6-0.5,1.3-0.7,2
			h2.7c-0.3-0.7-0.5-1.4-0.7-2S246.6,701.7,246.4,701.3z"/>
		<path class="st1" d="M253.7,706.9c0.5,0,0.9-0.1,1.2-0.3c0.2-0.2,0.4-0.4,0.4-0.8c0-0.2,0-0.4-0.1-0.5s-0.2-0.3-0.4-0.4
			s-0.3-0.2-0.6-0.3c-0.2-0.1-0.5-0.2-0.8-0.3s-0.6-0.2-0.8-0.3c-0.3-0.1-0.5-0.3-0.7-0.5s-0.4-0.4-0.5-0.7s-0.2-0.6-0.2-0.9
			c0-0.8,0.3-1.3,0.8-1.8c0.5-0.4,1.2-0.6,2.1-0.6c0.5,0,1,0.1,1.4,0.2c0.4,0.1,0.7,0.2,1,0.4l-0.5,1.2c-0.3-0.2-0.6-0.3-0.9-0.3
			c-0.3-0.1-0.7-0.1-1-0.1c-0.4,0-0.7,0.1-1,0.3c-0.2,0.2-0.3,0.4-0.3,0.7c0,0.2,0,0.3,0.1,0.5c0.1,0.1,0.2,0.2,0.3,0.4
			c0.1,0.1,0.3,0.2,0.5,0.3s0.4,0.2,0.6,0.3c0.4,0.1,0.7,0.3,1,0.4c0.3,0.1,0.6,0.3,0.8,0.5c0.2,0.2,0.4,0.4,0.5,0.7s0.2,0.6,0.2,1
			c0,0.8-0.3,1.3-0.8,1.7s-1.3,0.6-2.3,0.6c-0.3,0-0.7,0-0.9-0.1c-0.3,0-0.5-0.1-0.8-0.2c-0.2-0.1-0.4-0.1-0.6-0.2
			c-0.2-0.1-0.3-0.1-0.4-0.2l0.4-1.2c0.2,0.1,0.5,0.2,0.9,0.4C252.8,706.8,253.2,706.9,253.7,706.9z"/>
		<path class="st1" d="M258.2,708v-8.3h5.3v1.3h-3.8v2.1h3.4v1.3h-3.4v2.4h4.1v1.3L258.2,708L258.2,708z"/>
		<path class="st1" d="M267.3,706.9c0.5,0,0.9-0.1,1.2-0.3c0.2-0.2,0.4-0.4,0.4-0.8c0-0.2,0-0.4-0.1-0.5s-0.2-0.3-0.4-0.4
			c-0.2-0.1-0.3-0.2-0.6-0.3c-0.2-0.1-0.5-0.2-0.8-0.3s-0.6-0.2-0.8-0.3c-0.3-0.1-0.5-0.3-0.7-0.5s-0.4-0.4-0.5-0.7
			s-0.2-0.6-0.2-0.9c0-0.8,0.3-1.3,0.8-1.8c0.5-0.4,1.2-0.6,2.1-0.6c0.5,0,1,0.1,1.4,0.2c0.4,0.1,0.7,0.2,1,0.4l-0.5,1.2
			c-0.3-0.2-0.6-0.3-0.9-0.3s-0.7-0.1-1-0.1c-0.4,0-0.7,0.1-1,0.3c-0.2,0.2-0.3,0.4-0.3,0.7c0,0.2,0,0.3,0.1,0.5
			c0.1,0.1,0.2,0.2,0.3,0.4c0.1,0.1,0.3,0.2,0.5,0.3s0.4,0.2,0.6,0.3c0.4,0.1,0.7,0.3,1,0.4c0.3,0.1,0.6,0.3,0.8,0.5
			s0.4,0.4,0.5,0.7s0.2,0.6,0.2,1c0,0.8-0.3,1.3-0.8,1.7s-1.3,0.6-2.3,0.6c-0.3,0-0.7,0-0.9-0.1s-0.5-0.1-0.8-0.2
			c-0.2-0.1-0.4-0.1-0.6-0.2c-0.2-0.1-0.3-0.1-0.4-0.2l0.4-1.2c0.2,0.1,0.5,0.2,0.9,0.4C266.3,706.8,266.7,706.9,267.3,706.9z"/>
	</g>
	<rect id="Rectangle_733" x="176" y="730.8" class="st2" width="96" height="26"/>
	<rect id="Rectangle_743" x="176" y="760.8" class="st3" width="96" height="26"/>
	<g class="st0">
		<path class="st4" d="M203,745.1h2.5v-2.7h1.5v2.7h2.5v1.4H207v2.7h-1.5v-2.7H203V745.1z"/>
		<path class="st4" d="M211.5,742.1c0.5-0.2,1.1-0.5,1.6-0.8s1-0.7,1.4-1.2h1.2v9.7H214v-7.4c-0.3,0.2-0.6,0.4-1,0.6
			c-0.4,0.2-0.8,0.3-1.1,0.5L211.5,742.1z"/>
		<path class="st4" d="M223.5,747c0-0.3-0.1-0.6-0.2-0.8c-0.1-0.2-0.3-0.4-0.6-0.6s-0.7-0.3-1.2-0.4c-0.5-0.1-1.2-0.1-1.9-0.1
			c0.1-0.9,0.2-1.7,0.2-2.6c0.1-0.8,0.1-1.6,0.1-2.4h5v1.4h-3.5c0,0.2,0,0.3,0,0.5s0,0.4,0,0.6s0,0.4,0,0.6c0,0.2,0,0.3-0.1,0.5
			c1.4,0.1,2.4,0.4,3.1,0.9c0.7,0.6,1,1.3,1,2.3c0,0.4-0.1,0.8-0.2,1.2s-0.4,0.7-0.7,1s-0.7,0.5-1.2,0.6c-0.5,0.2-1,0.2-1.6,0.2
			c-0.3,0-0.5,0-0.8-0.1c-0.3,0-0.5-0.1-0.7-0.1c-0.2-0.1-0.5-0.1-0.6-0.2c-0.2-0.1-0.3-0.1-0.4-0.2l0.3-1.4
			c0.2,0.1,0.5,0.2,0.8,0.3s0.8,0.2,1.4,0.2c0.4,0,0.7,0,0.9-0.1s0.5-0.2,0.6-0.3c0.2-0.1,0.3-0.3,0.4-0.5
			C223.5,747.4,223.5,747.2,223.5,747z"/>
		<path class="st4" d="M233.5,744.9c0,1.6-0.3,2.9-0.9,3.8c-0.6,0.9-1.4,1.3-2.5,1.3s-1.9-0.4-2.5-1.3c-0.6-0.9-0.9-2.1-0.9-3.8
			c0-0.8,0.1-1.5,0.2-2.2c0.2-0.6,0.4-1.2,0.7-1.6c0.3-0.4,0.6-0.8,1.1-1c0.4-0.2,0.9-0.3,1.4-0.3c1.1,0,1.9,0.4,2.5,1.3
			C233.2,742.1,233.5,743.3,233.5,744.9z M231.7,744.9c0-0.5,0-1-0.1-1.4s-0.1-0.8-0.3-1.1s-0.3-0.6-0.5-0.8s-0.5-0.3-0.8-0.3
			s-0.6,0.1-0.8,0.3s-0.4,0.4-0.5,0.8s-0.2,0.7-0.3,1.1c-0.1,0.4-0.1,0.9-0.1,1.4s0,1,0.1,1.4s0.1,0.8,0.3,1.1
			c0.1,0.3,0.3,0.6,0.5,0.8s0.5,0.3,0.8,0.3s0.6-0.1,0.8-0.3s0.4-0.4,0.5-0.8c0.1-0.3,0.2-0.7,0.3-1.1
			C231.7,745.9,231.7,745.4,231.7,744.9z"/>
		<path class="st4" d="M241.4,744.9c0,1.6-0.3,2.9-0.9,3.8c-0.6,0.9-1.4,1.3-2.5,1.3s-1.9-0.4-2.5-1.3c-0.6-0.9-0.9-2.1-0.9-3.8
			c0-0.8,0.1-1.5,0.2-2.2c0.2-0.6,0.4-1.2,0.7-1.6c0.3-0.4,0.6-0.8,1.1-1c0.4-0.2,0.9-0.3,1.4-0.3c1.1,0,1.9,0.4,2.5,1.3
			C241.1,742.1,241.4,743.3,241.4,744.9z M239.7,744.9c0-0.5,0-1-0.1-1.4s-0.1-0.8-0.3-1.1s-0.3-0.6-0.5-0.8s-0.5-0.3-0.8-0.3
			s-0.6,0.1-0.8,0.3s-0.4,0.4-0.5,0.8s-0.2,0.7-0.3,1.1c-0.1,0.4-0.1,0.9-0.1,1.4s0,1,0.1,1.4s0.1,0.8,0.3,1.1
			c0.1,0.3,0.3,0.6,0.5,0.8s0.5,0.3,0.8,0.3s0.6-0.1,0.8-0.3s0.4-0.4,0.5-0.8c0.1-0.3,0.2-0.7,0.3-1.1
			C239.6,745.9,239.7,745.4,239.7,744.9z"/>
	</g>
	<g class="st0">
		<path class="st4" d="M187.5,775.1h2.5v-2.7h1.5v2.7h2.5v1.4h-2.5v2.7H190v-2.7h-2.5V775.1z"/>
		<path class="st4" d="M200,777c0-0.3-0.1-0.6-0.2-0.8c-0.1-0.2-0.3-0.4-0.6-0.6s-0.7-0.3-1.2-0.4c-0.5-0.1-1.2-0.1-1.9-0.1
			c0.1-0.9,0.2-1.7,0.2-2.6c0.1-0.8,0.1-1.6,0.1-2.4h5v1.4h-3.5c0,0.2,0,0.3,0,0.5s0,0.4,0,0.6s0,0.4,0,0.6c0,0.2,0,0.3-0.1,0.5
			c1.4,0.1,2.4,0.4,3.1,0.9c0.7,0.6,1,1.3,1,2.3c0,0.4-0.1,0.8-0.2,1.2s-0.4,0.7-0.7,1s-0.7,0.5-1.2,0.6c-0.5,0.2-1,0.2-1.6,0.2
			c-0.3,0-0.5,0-0.8-0.1c-0.3,0-0.5-0.1-0.7-0.1c-0.2-0.1-0.5-0.1-0.6-0.2c-0.2-0.1-0.3-0.1-0.4-0.2l0.3-1.4
			c0.2,0.1,0.5,0.2,0.8,0.3s0.8,0.2,1.4,0.2c0.4,0,0.7,0,0.9-0.1s0.5-0.2,0.6-0.3c0.2-0.1,0.3-0.3,0.4-0.5
			C200,777.4,200,777.2,200,777z"/>
		<path class="st4" d="M210,774.9c0,1.6-0.3,2.9-0.9,3.8c-0.6,0.9-1.4,1.3-2.5,1.3s-1.9-0.4-2.5-1.3c-0.6-0.9-0.9-2.1-0.9-3.8
			c0-0.8,0.1-1.5,0.2-2.2c0.2-0.6,0.4-1.2,0.7-1.6c0.3-0.4,0.6-0.8,1.1-1c0.4-0.2,0.9-0.3,1.4-0.3c1.1,0,1.9,0.4,2.5,1.3
			C209.7,772.1,210,773.3,210,774.9z M208.2,774.9c0-0.5,0-1-0.1-1.4s-0.1-0.8-0.3-1.1s-0.3-0.6-0.5-0.8s-0.5-0.3-0.8-0.3
			s-0.6,0.1-0.8,0.3s-0.4,0.4-0.5,0.8s-0.2,0.7-0.3,1.1c-0.1,0.4-0.1,0.9-0.1,1.4s0,1,0.1,1.4s0.1,0.8,0.3,1.1
			c0.1,0.3,0.3,0.6,0.5,0.8s0.5,0.3,0.8,0.3s0.6-0.1,0.8-0.3s0.4-0.4,0.5-0.8c0.1-0.3,0.2-0.7,0.3-1.1
			C208.2,775.9,208.2,775.4,208.2,774.9z"/>
		<path class="st4" d="M217.9,774.9c0,1.6-0.3,2.9-0.9,3.8c-0.6,0.9-1.4,1.3-2.5,1.3s-1.9-0.4-2.5-1.3c-0.6-0.9-0.9-2.1-0.9-3.8
			c0-0.8,0.1-1.5,0.2-2.2c0.2-0.6,0.4-1.2,0.7-1.6c0.3-0.4,0.6-0.8,1.1-1c0.4-0.2,0.9-0.3,1.4-0.3c1.1,0,1.9,0.4,2.5,1.3
			C217.6,772.1,217.9,773.3,217.9,774.9z M216.2,774.9c0-0.5,0-1-0.1-1.4s-0.1-0.8-0.3-1.1s-0.3-0.6-0.5-0.8s-0.5-0.3-0.8-0.3
			s-0.6,0.1-0.8,0.3s-0.4,0.4-0.5,0.8s-0.2,0.7-0.3,1.1c-0.1,0.4-0.1,0.9-0.1,1.4s0,1,0.1,1.4s0.1,0.8,0.3,1.1
			c0.1,0.3,0.3,0.6,0.5,0.8s0.5,0.3,0.8,0.3s0.6-0.1,0.8-0.3s0.4-0.4,0.5-0.8c0.1-0.3,0.2-0.7,0.3-1.1
			C216.2,775.9,216.2,775.4,216.2,774.9z"/>
		<path class="st4" d="M222.1,775h3.8v1.6h-3.8V775z"/>
		<path class="st4" d="M230.7,772.1c0.5-0.2,1.1-0.5,1.6-0.8s1-0.7,1.4-1.2h1.2v9.7h-1.7v-7.4c-0.3,0.2-0.6,0.4-1,0.6
			c-0.4,0.2-0.8,0.3-1.1,0.5L230.7,772.1z"/>
		<path class="st4" d="M242.8,777c0-0.3-0.1-0.6-0.2-0.8c-0.1-0.2-0.3-0.4-0.6-0.6c-0.3-0.2-0.7-0.3-1.2-0.4
			c-0.5-0.1-1.2-0.1-1.9-0.1c0.1-0.9,0.2-1.7,0.2-2.6c0.1-0.8,0.1-1.6,0.1-2.4h5v1.4h-3.5c0,0.2,0,0.3,0,0.5s0,0.4,0,0.6
			c0,0.2,0,0.4,0,0.6s0,0.3-0.1,0.5c1.4,0.1,2.4,0.4,3.1,0.9c0.7,0.6,1,1.3,1,2.3c0,0.4-0.1,0.8-0.2,1.2s-0.4,0.7-0.7,1
			s-0.7,0.5-1.2,0.6c-0.5,0.2-1,0.2-1.6,0.2c-0.3,0-0.5,0-0.8-0.1c-0.3,0-0.5-0.1-0.7-0.1c-0.2-0.1-0.5-0.1-0.6-0.2
			c-0.2-0.1-0.3-0.1-0.4-0.2l0.3-1.4c0.2,0.1,0.5,0.2,0.8,0.3c0.4,0.1,0.8,0.2,1.4,0.2c0.4,0,0.7,0,0.9-0.1c0.3-0.1,0.5-0.2,0.6-0.3
			s0.3-0.3,0.4-0.5C242.7,777.4,242.8,777.2,242.8,777z"/>
		<path class="st4" d="M252.7,774.9c0,1.6-0.3,2.9-0.9,3.8c-0.6,0.9-1.4,1.3-2.5,1.3s-1.9-0.4-2.5-1.3c-0.6-0.9-0.9-2.1-0.9-3.8
			c0-0.8,0.1-1.5,0.2-2.2c0.2-0.6,0.4-1.2,0.7-1.6c0.3-0.4,0.6-0.8,1.1-1c0.4-0.2,0.9-0.3,1.4-0.3c1.1,0,1.9,0.4,2.5,1.3
			C252.4,772.1,252.7,773.3,252.7,774.9z M251,774.9c0-0.5,0-1-0.1-1.4s-0.1-0.8-0.3-1.1s-0.3-0.6-0.5-0.8s-0.5-0.3-0.8-0.3
			s-0.6,0.1-0.8,0.3s-0.4,0.4-0.5,0.8s-0.2,0.7-0.3,1.1c-0.1,0.4-0.1,0.9-0.1,1.4s0,1,0.1,1.4s0.1,0.8,0.3,1.1
			c0.1,0.3,0.3,0.6,0.5,0.8s0.5,0.3,0.8,0.3s0.6-0.1,0.8-0.3s0.4-0.4,0.5-0.8c0.1-0.3,0.2-0.7,0.3-1.1
			C250.9,775.9,251,775.4,251,774.9z"/>
		<path class="st4" d="M260.7,774.9c0,1.6-0.3,2.9-0.9,3.8c-0.6,0.9-1.4,1.3-2.5,1.3s-1.9-0.4-2.5-1.3c-0.6-0.9-0.9-2.1-0.9-3.8
			c0-0.8,0.1-1.5,0.2-2.2c0.2-0.6,0.4-1.2,0.7-1.6c0.3-0.4,0.6-0.8,1.1-1c0.4-0.2,0.9-0.3,1.4-0.3c1.1,0,1.9,0.4,2.5,1.3
			C260.4,772.1,260.7,773.3,260.7,774.9z M258.9,774.9c0-0.5,0-1-0.1-1.4s-0.1-0.8-0.3-1.1s-0.3-0.6-0.5-0.8s-0.5-0.3-0.8-0.3
			s-0.6,0.1-0.8,0.3s-0.4,0.4-0.5,0.8s-0.2,0.7-0.3,1.1c-0.1,0.4-0.1,0.9-0.1,1.4s0,1,0.1,1.4s0.1,0.8,0.3,1.1
			c0.1,0.3,0.3,0.6,0.5,0.8s0.5,0.3,0.8,0.3s0.6-0.1,0.8-0.3s0.4-0.4,0.5-0.8c0.1-0.3,0.2-0.7,0.3-1.1
			C258.9,775.9,258.9,775.4,258.9,774.9z"/>
	</g>
	<rect id="Rectangle_744" x="176" y="790.8" class="st5" width="96" height="26"/>
	<g class="st0">
		<path class="st4" d="M210,804.9c0,1.6-0.3,2.9-0.9,3.8c-0.6,0.9-1.4,1.3-2.5,1.3s-1.9-0.4-2.5-1.3c-0.6-0.9-0.9-2.1-0.9-3.8
			c0-0.8,0.1-1.5,0.2-2.2c0.2-0.6,0.4-1.2,0.7-1.6c0.3-0.4,0.6-0.8,1.1-1c0.4-0.2,0.9-0.3,1.4-0.3c1.1,0,1.9,0.4,2.5,1.3
			C209.7,802.1,210,803.3,210,804.9z M208.2,804.9c0-0.5,0-1-0.1-1.4s-0.1-0.8-0.3-1.1s-0.3-0.6-0.5-0.8s-0.5-0.3-0.8-0.3
			s-0.6,0.1-0.8,0.3s-0.4,0.4-0.5,0.8s-0.2,0.7-0.3,1.1c-0.1,0.4-0.1,0.9-0.1,1.4s0,1,0.1,1.4s0.1,0.8,0.3,1.1
			c0.1,0.3,0.3,0.6,0.5,0.8s0.5,0.3,0.8,0.3s0.6-0.1,0.8-0.3s0.4-0.4,0.5-0.8c0.1-0.3,0.2-0.7,0.3-1.1
			C208.2,805.9,208.2,805.4,208.2,804.9z"/>
		<path class="st4" d="M214.2,805h3.8v1.6h-3.8V805z"/>
		<path class="st4" d="M226.9,807c0-0.3-0.1-0.6-0.2-0.8c-0.1-0.2-0.3-0.4-0.6-0.6c-0.3-0.2-0.7-0.3-1.2-0.4
			c-0.5-0.1-1.2-0.1-1.9-0.1c0.1-0.9,0.2-1.7,0.2-2.6c0.1-0.8,0.1-1.6,0.1-2.4h5v1.4h-3.5c0,0.2,0,0.3,0,0.5s0,0.4,0,0.6
			s0,0.4,0,0.6c0,0.2,0,0.3-0.1,0.5c1.4,0.1,2.4,0.4,3.1,0.9c0.7,0.6,1,1.3,1,2.3c0,0.4-0.1,0.8-0.2,1.2s-0.4,0.7-0.7,1
			s-0.7,0.5-1.2,0.6c-0.5,0.2-1,0.2-1.6,0.2c-0.3,0-0.5,0-0.8-0.1c-0.3,0-0.5-0.1-0.7-0.1c-0.2-0.1-0.5-0.1-0.6-0.2
			c-0.2-0.1-0.3-0.1-0.4-0.2l0.3-1.4c0.2,0.1,0.5,0.2,0.8,0.3s0.8,0.2,1.4,0.2c0.4,0,0.7,0,0.9-0.1c0.3-0.1,0.5-0.2,0.6-0.3
			s0.3-0.3,0.4-0.5C226.8,807.4,226.9,807.2,226.9,807z"/>
		<path class="st4" d="M236.8,804.9c0,1.6-0.3,2.9-0.9,3.8c-0.6,0.9-1.4,1.3-2.5,1.3s-1.9-0.4-2.5-1.3c-0.6-0.9-0.9-2.1-0.9-3.8
			c0-0.8,0.1-1.5,0.2-2.2c0.2-0.6,0.4-1.2,0.7-1.6c0.3-0.4,0.6-0.8,1.1-1c0.4-0.2,0.9-0.3,1.4-0.3c1.1,0,1.9,0.4,2.5,1.3
			C236.5,802.1,236.8,803.3,236.8,804.9z M235.1,804.9c0-0.5,0-1-0.1-1.4s-0.1-0.8-0.3-1.1s-0.3-0.6-0.5-0.8s-0.5-0.3-0.8-0.3
			s-0.6,0.1-0.8,0.3s-0.4,0.4-0.5,0.8s-0.2,0.7-0.3,1.1c-0.1,0.4-0.1,0.9-0.1,1.4s0,1,0.1,1.4s0.1,0.8,0.3,1.1
			c0.1,0.3,0.3,0.6,0.5,0.8s0.5,0.3,0.8,0.3s0.6-0.1,0.8-0.3s0.4-0.4,0.5-0.8c0.1-0.3,0.2-0.7,0.3-1.1
			C235,805.9,235.1,805.4,235.1,804.9z"/>
		<path class="st4" d="M244.8,804.9c0,1.6-0.3,2.9-0.9,3.8c-0.6,0.9-1.4,1.3-2.5,1.3s-1.9-0.4-2.5-1.3c-0.6-0.9-0.9-2.1-0.9-3.8
			c0-0.8,0.1-1.5,0.2-2.2c0.2-0.6,0.4-1.2,0.7-1.6c0.3-0.4,0.6-0.8,1.1-1c0.4-0.2,0.9-0.3,1.4-0.3c1.1,0,1.9,0.4,2.5,1.3
			C244.5,802.1,244.8,803.3,244.8,804.9z M243,804.9c0-0.5,0-1-0.1-1.4s-0.1-0.8-0.3-1.1s-0.3-0.6-0.5-0.8s-0.5-0.3-0.8-0.3
			s-0.6,0.1-0.8,0.3s-0.4,0.4-0.5,0.8s-0.2,0.7-0.3,1.1c-0.1,0.4-0.1,0.9-0.1,1.4s0,1,0.1,1.4s0.1,0.8,0.3,1.1
			c0.1,0.3,0.3,0.6,0.5,0.8s0.5,0.3,0.8,0.3s0.6-0.1,0.8-0.3s0.4-0.4,0.5-0.8c0.1-0.3,0.2-0.7,0.3-1.1
			C243,805.9,243,805.4,243,804.9z"/>
	</g>
	<rect id="Rectangle_744_1_" x="176" y="820.4" class="st6" width="96" height="26"/>
	<g>
		<path class="st4" d="M214.4,839c-0.4-0.6-0.8-1.3-1.2-2c-0.4-0.7-0.9-1.4-1.4-2.1c-0.5-0.7-1-1.4-1.5-2.1c-0.5-0.7-1-1.3-1.4-1.8
			v7.9h-2v-11.1h1.6c0.4,0.4,0.9,1,1.4,1.6c0.5,0.6,1,1.3,1.5,1.9s1,1.3,1.4,2s0.9,1.3,1.2,1.9v-7.4h2V839H214.4z"/>
		<path class="st4" d="M222.7,842h-2l5.4-15.5h1.9L222.7,842z"/>
		<path class="st4" d="M240.2,839c-0.1-0.4-0.3-0.9-0.5-1.3c-0.2-0.4-0.3-0.9-0.5-1.3h-4.7c-0.1,0.4-0.3,0.9-0.5,1.3
			s-0.3,0.9-0.5,1.3h-2.1c0.4-1.2,0.8-2.3,1.2-3.3c0.4-1,0.7-2,1.1-2.8c0.4-0.9,0.7-1.7,1.1-2.6c0.4-0.8,0.7-1.6,1.1-2.4h1.9
			c0.4,0.8,0.7,1.6,1.1,2.4c0.4,0.8,0.7,1.7,1.1,2.6c0.4,0.9,0.7,1.8,1.1,2.8c0.4,1,0.8,2.1,1.2,3.3H240.2z M236.9,830.1
			c-0.2,0.6-0.5,1.3-0.8,2.1s-0.6,1.7-1,2.6h3.6c-0.3-0.9-0.7-1.8-1-2.7C237.4,831.3,237.2,830.6,236.9,830.1z"/>
	</g>
	<g>
		<path class="st1" d="M193.9,712c1.2,0,2,0.2,2.7,0.6c0.6,0.4,0.9,1.1,0.9,2c0,0.5-0.1,0.9-0.2,1.2c-0.2,0.3-0.4,0.6-0.7,0.8
			c-0.3,0.2-0.7,0.4-1.1,0.5c-0.5,0.1-1,0.1-1.6,0.1h-0.7v2.8h-1.4v-7.9c0.3-0.1,0.7-0.1,1.1-0.2S193.5,712,193.9,712z M194,713.2
			c-0.4,0-0.7,0-0.9,0v2.7h0.7c0.7,0,1.2-0.1,1.6-0.3c0.4-0.2,0.6-0.6,0.6-1.1c0-0.3,0-0.5-0.1-0.7s-0.2-0.3-0.4-0.4
			s-0.4-0.2-0.6-0.2C194.5,713.2,194.3,713.2,194,713.2z"/>
		<path class="st1" d="M199.1,720v-8h5.1v1.2h-3.7v2h3.3v1.2h-3.3v2.3h3.9v1.2H199.1z"/>
		<path class="st1" d="M208.3,712c1.1,0,2,0.2,2.6,0.6c0.6,0.4,0.9,1.1,0.9,1.9c0,1.1-0.5,1.8-1.6,2.2c0.1,0.2,0.3,0.4,0.5,0.6
			s0.4,0.5,0.6,0.8c0.2,0.3,0.4,0.6,0.6,0.9s0.3,0.6,0.5,0.9h-1.6c-0.1-0.3-0.3-0.6-0.5-0.8c-0.2-0.3-0.3-0.6-0.5-0.8
			c-0.2-0.3-0.3-0.5-0.5-0.7c-0.2-0.2-0.3-0.4-0.5-0.6c-0.1,0-0.2,0-0.3,0c-0.1,0-0.1,0-0.2,0h-0.7v3h-1.4v-7.9
			c0.4-0.1,0.7-0.1,1.1-0.2C207.6,712,208,712,208.3,712z M208.4,713.2c-0.3,0-0.6,0-0.9,0v2.6h0.6c0.4,0,0.7,0,0.9-0.1
			c0.3,0,0.5-0.1,0.7-0.2c0.2-0.1,0.3-0.2,0.4-0.4c0.1-0.2,0.1-0.4,0.1-0.6c0-0.2,0-0.5-0.1-0.6c-0.1-0.2-0.2-0.3-0.4-0.4
			s-0.4-0.2-0.6-0.2C209,713.2,208.7,713.2,208.4,713.2z"/>
		<path class="st1" d="M220.3,720.2c-0.6,0-1.1-0.1-1.6-0.3c-0.5-0.2-0.9-0.5-1.2-0.8c-0.3-0.4-0.6-0.8-0.8-1.3
			c-0.2-0.5-0.3-1.1-0.3-1.8s0.1-1.3,0.3-1.8c0.2-0.5,0.5-0.9,0.8-1.3s0.8-0.6,1.2-0.8c0.5-0.2,1-0.3,1.5-0.3c0.3,0,0.6,0,0.9,0.1
			s0.5,0.1,0.7,0.2c0.2,0.1,0.4,0.1,0.5,0.2c0.1,0.1,0.2,0.1,0.3,0.1l-0.4,1.2c-0.2-0.1-0.4-0.2-0.8-0.3s-0.7-0.2-1.1-0.2
			c-0.3,0-0.7,0.1-1,0.2c-0.3,0.1-0.6,0.3-0.8,0.5c-0.2,0.2-0.4,0.5-0.5,0.9s-0.2,0.8-0.2,1.3c0,0.4,0,0.8,0.1,1.2
			c0.1,0.4,0.2,0.7,0.4,0.9c0.2,0.3,0.5,0.5,0.8,0.6c0.3,0.1,0.7,0.2,1.1,0.2c0.5,0,0.9-0.1,1.3-0.2c0.3-0.1,0.6-0.2,0.7-0.3
			l0.4,1.2c-0.1,0.1-0.2,0.1-0.4,0.2c-0.2,0.1-0.3,0.1-0.6,0.2c-0.2,0.1-0.5,0.1-0.7,0.1C220.9,720.2,220.6,720.2,220.3,720.2z"/>
		<path class="st1" d="M229.9,720c-0.1-0.3-0.2-0.6-0.3-0.9s-0.2-0.6-0.3-0.9h-3.4c-0.1,0.3-0.2,0.6-0.3,0.9s-0.2,0.6-0.3,0.9h-1.5
			c0.3-0.9,0.6-1.6,0.9-2.4s0.5-1.4,0.8-2c0.3-0.6,0.5-1.3,0.8-1.8c0.3-0.6,0.5-1.2,0.8-1.7h1.4c0.3,0.6,0.5,1.1,0.8,1.7
			c0.3,0.6,0.5,1.2,0.8,1.8c0.3,0.6,0.5,1.3,0.8,2c0.3,0.7,0.6,1.5,0.9,2.4H229.9z M227.5,713.6c-0.2,0.4-0.4,0.9-0.6,1.5
			c-0.2,0.6-0.5,1.2-0.7,1.9h2.6c-0.2-0.7-0.5-1.3-0.7-1.9C227.9,714.5,227.7,714,227.5,713.6z"/>
		<path class="st1" d="M235,712c1.2,0,2,0.2,2.7,0.6c0.6,0.4,0.9,1.1,0.9,2c0,0.5-0.1,0.9-0.2,1.2c-0.2,0.3-0.4,0.6-0.7,0.8
			c-0.3,0.2-0.7,0.4-1.1,0.5s-1,0.1-1.6,0.1h-0.7v2.8h-1.4v-7.9c0.3-0.1,0.7-0.1,1.1-0.2C234.3,712,234.6,712,235,712z M235.1,713.2
			c-0.4,0-0.7,0-0.9,0v2.7h0.7c0.7,0,1.2-0.1,1.6-0.3c0.4-0.2,0.6-0.6,0.6-1.1c0-0.3,0-0.5-0.1-0.7s-0.2-0.3-0.4-0.4
			s-0.4-0.2-0.6-0.2C235.6,713.2,235.4,713.2,235.1,713.2z"/>
		<path class="st1" d="M240.2,712h1.4v8h-1.4V712z"/>
		<path class="st1" d="M249.4,712v1.3h-2.4v6.7h-1.5v-6.7H243V712H249.4z"/>
		<path class="st1" d="M255.4,720c-0.1-0.3-0.2-0.6-0.3-0.9s-0.2-0.6-0.3-0.9h-3.4c-0.1,0.3-0.2,0.6-0.3,0.9s-0.2,0.6-0.3,0.9h-1.5
			c0.3-0.9,0.6-1.6,0.8-2.4c0.3-0.7,0.5-1.4,0.8-2c0.3-0.6,0.5-1.3,0.8-1.8c0.3-0.6,0.5-1.2,0.8-1.7h1.4c0.3,0.6,0.5,1.1,0.8,1.7
			c0.3,0.6,0.5,1.2,0.8,1.8c0.3,0.6,0.5,1.3,0.8,2c0.3,0.7,0.6,1.5,0.9,2.4H255.4z M253.1,713.6c-0.2,0.4-0.4,0.9-0.6,1.5
			c-0.2,0.6-0.5,1.2-0.7,1.9h2.6c-0.2-0.7-0.5-1.3-0.7-1.9C253.4,714.5,253.2,714,253.1,713.6z"/>
	</g>
</g>
</svg>
