<svg xmlns="http://www.w3.org/2000/svg" viewBox="0 0 23.01 24.49"><defs><style>.cls-1{fill:#d7e103;}</style></defs><g id="Layer_2" data-name="Layer 2"><g id="Layer_1-2" data-name="Layer 1"><path id="Path_597" data-name="Path 597" class="cls-1" d="M4.91,17.42c1.5-.25,1.57.39,1.54,1.24-.06,1.6,0,3.2,0,4.8,0,.71-.19,1.06-1,1a10.92,10.92,0,0,0-1.28,0,1.6,1.6,0,0,1-1.78-1.85c0-2.91-.08-5.83,0-8.75C2.53,12.38,2.14,11.75.64,12a2.53,2.53,0,0,1-.55,0c-.25-.37.08-.51.26-.7L10.74.54c.46-.48.75-.86,1.42-.16,3.56,3.76,7.17,7.48,10.76,11.2a.54.54,0,0,1,.09.25c-.05.07-.11.17-.17.17-2.26.08-2.26.08-2.26,2.34,0,2.68,0,5.36,0,8,0,.74,0,1.47-.78,1.82a5.1,5.1,0,0,1-2.92.14c-.42-.06-.26-.64-.26-1,0-1.6,0-3.2,0-4.8,0-.77-.06-1.52,1.22-1.42q-3-3.12-6-6.26c-.38-.39-.58,0-.8.18Z"/></g></g></svg>