<svg xmlns="http://www.w3.org/2000/svg" viewBox="0 0 35.4 51.48"><defs><style>.cls-1{fill:#d5d920;}</style></defs><g id="Layer_2" data-name="Layer 2"><g id="Layer_1-2" data-name="Layer 1"><g id="location"><path id="Path_601" data-name="Path 601" class="cls-1" d="M32.94,8.81A17.49,17.49,0,0,0,18.1,0h-.8A17.49,17.49,0,0,0,2.46,8.81a18,18,0,0,0-.24,17.71L15,49.89l0,0a3.1,3.1,0,0,0,4.23,1.15,3,3,0,0,0,1.15-1.15l0,0L33.17,26.52a17.91,17.91,0,0,0-.23-17.7ZM17.7,23.33a7.24,7.24,0,1,1,7.24-7.24h0A7.26,7.26,0,0,1,17.7,23.33Z"/></g></g></g></svg>