<svg xmlns="http://www.w3.org/2000/svg" viewBox="0 0 22.71 22.71"><defs><style>.cls-1{fill:#d5d920;}</style></defs><g id="Layer_2" data-name="Layer 2"><g id="Layer_1-2" data-name="Layer 1"><path id="virus" class="cls-1" d="M21,9a1.69,1.69,0,0,0-1.36.68h-1.3a7.11,7.11,0,0,0-.85-2l.92-.92a1.7,1.7,0,0,0,1.93-1.43,1.72,1.72,0,0,0-.48-1.46l-1-1A1.7,1.7,0,0,0,16,4.29l-.92.92a6.92,6.92,0,0,0-2-.84V3.07A1.71,1.71,0,0,0,13.41.69,1.69,1.69,0,0,0,12,0H10.67A1.71,1.71,0,0,0,9,1.69a1.73,1.73,0,0,0,.69,1.38v1.3a7.2,7.2,0,0,0-2,.84L6.7,4.29A1.7,1.7,0,0,0,3.81,2.84l-1,1A1.7,1.7,0,0,0,4.29,6.7l.92.92a6.81,6.81,0,0,0-.84,2H3.07A1.71,1.71,0,0,0,.69,9.3,1.69,1.69,0,0,0,0,10.67V12a1.7,1.7,0,0,0,3.07,1h1.3a7.09,7.09,0,0,0,.84,2L4.29,16a1.7,1.7,0,0,0-1.93,1.43,1.72,1.72,0,0,0,.48,1.46l1,1A1.7,1.7,0,0,0,6.7,18.42l.92-.92a7.11,7.11,0,0,0,2,.85v1.3a1.7,1.7,0,0,0,1,3.06H12a1.7,1.7,0,0,0,1-3.06v-1.3a7.11,7.11,0,0,0,2-.85l.92.92a1.7,1.7,0,0,0,2.89,1.45l1-1A1.7,1.7,0,0,0,18.42,16l-.92-.92a6.81,6.81,0,0,0,.84-2h1.3a1.7,1.7,0,0,0,3.07-1V10.67A1.7,1.7,0,0,0,21,9ZM8,8A.66.66,0,1,1,8,9,.66.66,0,0,1,8,8Zm-.71,4A.67.67,0,1,1,8,11.36H8a.66.66,0,0,1-.66.66ZM9,14.68a.66.66,0,1,1,0-.94.66.66,0,0,1,0,.94ZM9.58,12a.66.66,0,0,1-.66-.67.65.65,0,0,1,.66-.66.66.66,0,0,1,.67.66h0A.67.67,0,0,1,9.58,12Zm1.78-5.37a.67.67,0,0,1,.66.67.67.67,0,0,1-1.33,0h0a.67.67,0,0,1,.67-.67Zm0,9.4a.66.66,0,0,1-.67-.66.67.67,0,1,1,1.33,0h0a.66.66,0,0,1-.66.67h0Zm0-2.26a.67.67,0,1,1,.66-.66h0a.66.66,0,0,1-.66.67h0Zm0-3.55a.66.66,0,0,1-.67-.66.67.67,0,1,1,1.33,0h0a.67.67,0,0,1-.66.67h0ZM13.74,8a.66.66,0,1,1,0,.94.66.66,0,0,1,0-.94Zm-1.27,3.32a.65.65,0,0,1,.66-.66.66.66,0,0,1,.67.66.67.67,0,0,1-.67.67h0A.66.66,0,0,1,12.47,11.35Zm2.21,3.33a.66.66,0,1,1,0-.94.66.66,0,0,1,0,.94ZM15.39,12a.67.67,0,1,1,.67-.66.67.67,0,0,1-.67.66Z"/></g></g></svg>