<svg width="22" height="24" viewBox="0 0 22 24" fill="none" xmlns="http://www.w3.org/2000/svg">
<path d="M20.3435 9.51165C20.0877 9.51082 19.8352 9.57539 19.6065 9.70019C19.3777 9.82498 19.1789 10.0065 19.026 10.2303H17.7666C17.5931 9.48387 17.3153 8.77103 16.9432 8.11671L17.8344 7.14448C18.266 7.21411 18.7053 7.09409 19.0558 6.81077C19.4063 6.52744 19.6395 6.10396 19.7041 5.63329C19.7416 5.3544 19.7191 5.06982 19.6384 4.80204C19.5577 4.53427 19.421 4.29064 19.2391 4.0904L18.2704 3.03363C18.0256 2.78016 17.7153 2.61486 17.3815 2.56012C17.0477 2.50538 16.7066 2.56383 16.4043 2.72757C16.102 2.89131 15.8531 3.15243 15.6913 3.47557C15.5295 3.79872 15.4627 4.16829 15.4998 4.53425L14.6085 5.50648C14.0095 5.10131 13.3557 4.80174 12.6711 4.61879V3.24499C13.0168 2.95585 13.2443 2.52975 13.3041 2.059C13.3639 1.58824 13.2514 1.11073 12.9908 0.729868C12.8341 0.496859 12.628 0.308783 12.3901 0.18178C12.1522 0.0547759 11.8896 -0.00736309 11.6248 0.000694722H10.3364C9.90717 0.0116208 9.49857 0.203942 9.19677 0.537113C8.89496 0.870285 8.72354 1.31827 8.71864 1.78664C8.71901 2.06957 8.77958 2.34854 8.89557 2.6016C9.01155 2.85466 9.1798 3.0749 9.38706 3.24499V4.61879C8.70385 4.80625 8.05062 5.10554 7.44959 5.50648L6.49054 4.53425C6.54273 4.15923 6.48476 3.77581 6.32495 3.43893C6.16513 3.10205 5.91167 2.829 5.60088 2.65889C5.29008 2.48879 4.93791 2.43036 4.59481 2.49198C4.25171 2.5536 3.9353 2.73211 3.6909 3.00193L2.72216 4.0587C2.48333 4.3292 2.32822 4.67454 2.27863 5.04619C2.22903 5.41784 2.28746 5.79709 2.44568 6.13064C2.60391 6.46419 2.85398 6.73526 3.16074 6.90574C3.4675 7.07622 3.81553 7.13753 4.15589 7.08107L5.04713 8.0533C4.67411 8.70586 4.39937 9.41943 4.23339 10.1668H2.97403C2.70756 9.79129 2.31628 9.54527 1.88481 9.48199C1.45335 9.4187 1.01639 9.54325 0.668444 9.82868C0.460245 9.99538 0.291152 10.2135 0.174981 10.4651C0.0588093 10.7167 -0.00114484 10.9947 1.65569e-05 11.2765V12.682C0.00134378 13.0599 0.111926 13.4278 0.316025 13.7333C0.520123 14.0387 0.80734 14.2662 1.1368 14.3833C1.46626 14.5003 1.82117 14.5011 2.15103 14.3853C2.48089 14.2696 2.76889 14.0434 2.97403 13.7387H4.23339C4.40365 14.4846 4.67811 15.1975 5.04713 15.8523L4.15589 16.9091C3.72432 16.8394 3.28505 16.9594 2.93452 17.2428C2.58398 17.5261 2.35083 17.9496 2.28623 18.4202C2.24877 18.6991 2.27127 18.9837 2.35197 19.2515C2.43267 19.5193 2.56936 19.7629 2.75123 19.9631L3.71996 21.0199C3.96741 21.2792 4.28292 21.4476 4.62241 21.5018C4.9619 21.556 5.30842 21.4931 5.61357 21.322C5.91872 21.1509 6.16727 20.8801 6.3245 20.5475C6.48172 20.2148 6.53977 19.8369 6.49054 19.4664L7.38178 18.4942C7.9816 18.9002 8.63505 19.2031 9.31925 19.3925V20.7663C9.04401 20.9914 8.84032 21.3049 8.73675 21.6628C8.63319 22.0207 8.63497 22.4049 8.74183 22.7617C8.84869 23.1184 9.05528 23.4296 9.33259 23.6517C9.60989 23.8738 9.94399 23.9956 10.288 24H11.6248C11.9688 23.9956 12.3029 23.8738 12.5802 23.6517C12.8576 23.4296 13.0641 23.1184 13.171 22.7617C13.2779 22.4049 13.2796 22.0207 13.1761 21.6628C13.0725 21.3049 12.8688 20.9914 12.5936 20.7663V19.3925C13.2778 19.2031 13.9312 18.9002 14.5311 18.4942L15.4223 19.4664C15.3701 19.8415 15.4281 20.2249 15.5879 20.5618C15.7477 20.8986 16.0012 21.1717 16.312 21.3418C16.6227 21.5119 16.9749 21.5703 17.318 21.5087C17.6611 21.4471 17.9775 21.2686 18.2219 20.9988L19.1907 19.942C19.4238 19.6773 19.5771 19.3411 19.6298 18.9785C19.6825 18.6159 19.6321 18.2445 19.4854 17.9141C19.3387 17.5837 19.1028 17.3103 18.8094 17.1306C18.5159 16.9509 18.1791 16.8736 17.8441 16.9091L16.9529 15.9368C17.3259 15.2843 17.6006 14.5707 17.7666 13.8233H19.026C19.2311 14.1279 19.5191 14.3542 19.849 14.4699C20.1788 14.5856 20.5338 14.5849 20.8632 14.4678C21.1927 14.3507 21.4799 14.1233 21.684 13.8178C21.8881 13.5124 21.9987 13.1445 22 12.7665V11.2765C21.9924 10.8037 21.8142 10.3532 21.504 10.0229C21.1939 9.69248 20.7769 9.50879 20.3435 9.51165ZM7.7499 8.45487C7.84264 8.36771 7.95637 8.31141 8.07758 8.29268C8.19879 8.27396 8.32238 8.29358 8.43366 8.34923C8.54494 8.40487 8.63924 8.4942 8.70536 8.60659C8.77147 8.71898 8.80661 8.84972 8.80661 8.98326C8.80661 9.1168 8.77147 9.24754 8.70536 9.35993C8.63924 9.47233 8.54494 9.56165 8.43366 9.6173C8.32238 9.67294 8.19879 9.69257 8.07758 9.67384C7.95637 9.65511 7.84264 9.59882 7.7499 9.51165C7.68024 9.44617 7.62434 9.36507 7.58603 9.27389C7.54771 9.1827 7.52788 9.08357 7.52788 8.98326C7.52788 8.88295 7.54771 8.78382 7.58603 8.69264C7.62434 8.60145 7.68024 8.52035 7.7499 8.45487ZM7.0621 12.682C6.93445 12.6735 6.81194 12.6241 6.70994 12.54C6.60795 12.4558 6.53101 12.3407 6.48879 12.209C6.44657 12.0773 6.44095 11.935 6.47263 11.7998C6.50431 11.6647 6.57189 11.5427 6.66688 11.4493C6.76187 11.3559 6.88003 11.2952 7.00654 11.2748C7.13304 11.2544 7.26225 11.2752 7.37795 11.3347C7.49365 11.3941 7.59067 11.4895 7.65684 11.6088C7.72302 11.7282 7.75539 11.8663 7.7499 12.0056C7.7499 12.1906 7.68254 12.368 7.56264 12.4988C7.44273 12.6296 7.28011 12.7031 7.11054 12.7031L7.0621 12.682ZM8.71864 15.5141C8.62886 15.6107 8.51493 15.6761 8.39115 15.7022C8.26738 15.7283 8.13929 15.7139 8.02299 15.6609C7.90669 15.6078 7.80737 15.5184 7.73752 15.4039C7.66767 15.2894 7.6304 15.155 7.6304 15.0174C7.6304 14.8799 7.66767 14.7455 7.73752 14.631C7.80737 14.5165 7.90669 14.4271 8.02299 14.374C8.13929 14.3209 8.26738 14.3065 8.39115 14.3326C8.51493 14.3588 8.62886 14.4242 8.71864 14.5207C8.77897 14.5856 8.82689 14.663 8.85959 14.7482C8.89229 14.8335 8.90913 14.925 8.90913 15.0174C8.90913 15.1099 8.89229 15.2014 8.85959 15.2866C8.82689 15.3719 8.77897 15.4492 8.71864 15.5141ZM9.2805 12.682C9.19572 12.682 9.11178 12.6636 9.03357 12.6279C8.95536 12.5922 8.88444 12.5398 8.82494 12.474C8.76545 12.4081 8.71855 12.3299 8.687 12.2441C8.65544 12.1582 8.63985 12.0664 8.64114 11.9739C8.63983 11.8819 8.65548 11.7906 8.68714 11.7053C8.71881 11.6201 8.76586 11.5426 8.82549 11.4776C8.88512 11.4125 8.95613 11.3612 9.03429 11.3266C9.11245 11.2921 9.19618 11.275 9.2805 11.2765C9.36528 11.2751 9.44946 11.2921 9.52815 11.3265C9.60685 11.3609 9.67848 11.4121 9.73888 11.477C9.79928 11.5419 9.84724 11.6192 9.87998 11.7046C9.91271 11.7899 9.92957 11.8814 9.92956 11.9739C9.92956 12.1617 9.86117 12.3418 9.73945 12.4746C9.61773 12.6074 9.45264 12.682 9.2805 12.682ZM11.0049 7.0071C11.1753 7.00987 11.3379 7.08569 11.4576 7.21818C11.5772 7.35066 11.6442 7.52917 11.6442 7.71514C11.6249 7.88668 11.5487 8.04459 11.4301 8.1591C11.3114 8.27362 11.1584 8.33683 11 8.33683C10.8416 8.33683 10.6886 8.27362 10.57 8.1591C10.4513 8.04459 10.3751 7.88668 10.3558 7.71514C10.3558 7.52735 10.4242 7.34726 10.5459 7.21448C10.6676 7.08169 10.8327 7.0071 11.0049 7.0071ZM11.0049 16.9408C10.9201 16.9422 10.8359 16.9252 10.7572 16.8907C10.6785 16.8563 10.6069 16.8052 10.5465 16.7402C10.4861 16.6753 10.4381 16.598 10.4054 16.5127C10.3726 16.4273 10.3558 16.3358 10.3558 16.2433C10.3446 16.1438 10.3529 16.0428 10.3801 15.947C10.4074 15.8513 10.453 15.7629 10.5139 15.6878C10.5748 15.6127 10.6496 15.5526 10.7334 15.5114C10.8172 15.4702 10.9081 15.4489 11 15.4489C11.0919 15.4489 11.1828 15.4702 11.2666 15.5114C11.3504 15.5526 11.4252 15.6127 11.4861 15.6878C11.547 15.7629 11.5926 15.8513 11.6199 15.947C11.6471 16.0428 11.6554 16.1438 11.6442 16.2433C11.6455 16.3358 11.6299 16.4276 11.5984 16.5134C11.5668 16.5993 11.5199 16.6774 11.4604 16.7433C11.4009 16.8092 11.33 16.8615 11.2518 16.8972C11.1736 16.933 11.0896 16.9513 11.0049 16.9513V16.9408ZM11.0049 14.5525C10.8757 14.5545 10.7489 14.5145 10.6407 14.4375C10.5325 14.3605 10.4478 14.2501 10.3974 14.1203C10.3471 13.9905 10.3335 13.8473 10.3582 13.7089C10.3829 13.5706 10.4449 13.4435 10.5363 13.3438C10.6276 13.2442 10.7442 13.1765 10.871 13.1496C10.9978 13.1226 11.1291 13.1375 11.2481 13.1924C11.367 13.2473 11.4683 13.3397 11.5389 13.4577C11.6095 13.5757 11.6461 13.7141 11.6442 13.855C11.6455 13.9475 11.6299 14.0393 11.5984 14.1251C11.5668 14.211 11.5199 14.2891 11.4604 14.355C11.4009 14.4209 11.33 14.4732 11.2518 14.5089C11.1736 14.5446 11.0896 14.563 11.0049 14.563V14.5525ZM11.0049 10.8009C10.9201 10.8023 10.8359 10.7853 10.7572 10.7509C10.6785 10.7165 10.6069 10.6653 10.5465 10.6004C10.4861 10.5355 10.4381 10.4581 10.4054 10.3728C10.3726 10.2875 10.3558 10.1959 10.3558 10.1034C10.3446 10.0039 10.3529 9.90294 10.3801 9.80718C10.4074 9.71142 10.453 9.62306 10.5139 9.54796C10.5748 9.47286 10.6496 9.41273 10.7334 9.37154C10.8172 9.33036 10.9081 9.30906 11 9.30906C11.0919 9.30906 11.1828 9.33036 11.2666 9.37154C11.3504 9.41273 11.4252 9.47286 11.4861 9.54796C11.547 9.62306 11.5926 9.71142 11.6199 9.80718C11.6471 9.90294 11.6554 10.0039 11.6442 10.1034C11.6442 10.2894 11.5772 10.4679 11.4576 10.6004C11.3379 10.7329 11.1753 10.8087 11.0049 10.8115V10.8009ZM13.3104 8.45487C13.4002 8.35833 13.5142 8.29288 13.6379 8.26677C13.7617 8.24066 13.8898 8.25505 14.0061 8.30813C14.1224 8.36121 14.2217 8.45061 14.2916 8.5651C14.3614 8.67958 14.3987 8.81403 14.3987 8.95156C14.3987 9.08908 14.3614 9.22354 14.2916 9.33802C14.2217 9.4525 14.1224 9.5419 14.0061 9.59498C13.8898 9.64806 13.7617 9.66245 13.6379 9.63634C13.5142 9.61023 13.4002 9.54479 13.3104 9.44824C13.2501 9.38335 13.2022 9.30603 13.1695 9.22076C13.1368 9.13549 13.1199 9.04399 13.1199 8.95156C13.1199 8.85913 13.1368 8.76762 13.1695 8.68236C13.2022 8.59709 13.2501 8.51976 13.3104 8.45487ZM12.0801 11.9634C12.0788 11.8714 12.0945 11.78 12.1262 11.6948C12.1578 11.6095 12.2049 11.532 12.2645 11.467C12.3241 11.4019 12.3951 11.3506 12.4733 11.3161C12.5515 11.2815 12.6352 11.2645 12.7195 11.2659C12.8043 11.2645 12.8885 11.2815 12.9672 11.3159C13.0459 11.3503 13.1175 11.4015 13.1779 11.4664C13.2383 11.5313 13.2863 11.6087 13.319 11.694C13.3517 11.7793 13.3686 11.8709 13.3686 11.9634C13.3686 12.1511 13.3002 12.3312 13.1785 12.464C13.0567 12.5968 12.8917 12.6714 12.7195 12.6714C12.5532 12.6715 12.3935 12.6009 12.2741 12.4746C12.1548 12.3484 12.0852 12.1764 12.0801 11.9951V11.9634ZM14.2211 15.4824C14.1313 15.579 14.0173 15.6444 13.8936 15.6705C13.7698 15.6966 13.6417 15.6822 13.5254 15.6292C13.4091 15.5761 13.3098 15.4867 13.2399 15.3722C13.1701 15.2577 13.1328 15.1233 13.1328 14.9857C13.1328 14.8482 13.1701 14.7138 13.2399 14.5993C13.3098 14.4848 13.4091 14.3954 13.5254 14.3423C13.6417 14.2892 13.7698 14.2748 13.8936 14.3009C14.0173 14.3271 14.1313 14.3925 14.2211 14.489C14.2814 14.5539 14.3293 14.6313 14.362 14.7165C14.3947 14.8018 14.4115 14.8933 14.4115 14.9857C14.4115 15.0782 14.3947 15.1697 14.362 15.2549C14.3293 15.3402 14.2814 15.4175 14.2211 15.4824ZM14.9089 12.682C14.7801 12.6819 14.6542 12.6401 14.5473 12.5619C14.4403 12.4836 14.3572 12.3724 14.3083 12.2424C14.2595 12.1124 14.2472 11.9695 14.2731 11.8319C14.2989 11.6942 14.3617 11.5681 14.4534 11.4695C14.5452 11.3709 14.6617 11.3043 14.7883 11.2782C14.9148 11.2521 15.0456 11.2677 15.164 11.3229C15.2824 11.3781 15.3831 11.4705 15.4533 11.5883C15.5234 11.7061 15.5598 11.844 15.5579 11.9845C15.5554 12.1704 15.4859 12.3478 15.3644 12.4783C15.243 12.6088 15.0793 12.682 14.9089 12.682Z" fill="#F2F2F2"/>
</svg>
