<?xml version="1.0" encoding="utf-8"?>
<!-- Generator: Adobe Illustrator 22.0.1, SVG Export Plug-In . SVG Version: 6.00 Build 0)  -->
<svg version="1.1" id="Layer_1" xmlns="http://www.w3.org/2000/svg" xmlns:xlink="http://www.w3.org/1999/xlink" x="0px" y="0px"
	 viewBox="0 0 22 24" style="enable-background:new 0 0 22 24;" xml:space="preserve">
<style type="text/css">
	.st0{fill:#172D4A;}
</style>
<path class="st0" d="M20.3,9.5c-0.3,0-0.5,0.1-0.7,0.2c-0.2,0.1-0.4,0.3-0.6,0.5h-1.3c-0.2-0.7-0.5-1.5-0.8-2.1l0.9-1
	c0.4,0.1,0.9-0.1,1.2-0.3c0.4-0.3,0.6-0.7,0.6-1.2c0-0.3,0-0.6-0.1-0.8c-0.1-0.3-0.2-0.5-0.4-0.7l-1-1.1c-0.2-0.3-0.6-0.4-0.9-0.5
	c-0.3-0.1-0.7,0-1,0.2c-0.3,0.2-0.6,0.4-0.7,0.7c-0.2,0.3-0.2,0.7-0.2,1.1l-0.9,1c-0.6-0.4-1.3-0.7-1.9-0.9V3.2
	C13,3,13.2,2.5,13.3,2.1c0.1-0.5-0.1-0.9-0.3-1.3c-0.2-0.2-0.4-0.4-0.6-0.5C12.2,0.1,11.9,0,11.6,0h-1.3C9.9,0,9.5,0.2,9.2,0.5
	C8.9,0.9,8.7,1.3,8.7,1.8c0,0.3,0.1,0.6,0.2,0.8C9,2.9,9.2,3.1,9.4,3.2v1.4C8.7,4.8,8.1,5.1,7.4,5.5l-1-1c0.1-0.4,0-0.8-0.2-1.1
	C6.2,3.1,5.9,2.8,5.6,2.7c-0.3-0.2-0.7-0.2-1-0.2S3.9,2.7,3.7,3l-1,1.1C2.5,4.3,2.3,4.7,2.3,5c0,0.4,0,0.8,0.2,1.1
	c0.2,0.3,0.4,0.6,0.7,0.8c0.3,0.2,0.7,0.2,1,0.2l0.9,1c-0.4,0.7-0.6,1.4-0.8,2.1H3C2.7,9.8,2.3,9.5,1.9,9.5C1.5,9.4,1,9.5,0.7,9.8
	c-0.2,0.2-0.4,0.4-0.5,0.6C0.1,10.7,0,11,0,11.3v1.4c0,0.4,0.1,0.7,0.3,1.1c0.2,0.3,0.5,0.5,0.8,0.6c0.3,0.1,0.7,0.1,1,0
	C2.5,14.3,2.8,14,3,13.7h1.3c0.2,0.7,0.4,1.5,0.8,2.1l-0.9,1.1c-0.4-0.1-0.9,0.1-1.2,0.3c-0.4,0.3-0.6,0.7-0.6,1.2
	c0,0.3,0,0.6,0.1,0.8c0.1,0.3,0.2,0.5,0.4,0.7l1,1.1c0.2,0.3,0.6,0.4,0.9,0.5c0.3,0.1,0.7,0,1-0.2c0.3-0.2,0.6-0.4,0.7-0.8
	c0.2-0.3,0.2-0.7,0.2-1.1l0.9-1c0.6,0.4,1.3,0.7,1.9,0.9v1.4C9,21,8.8,21.3,8.7,21.7c-0.1,0.4-0.1,0.7,0,1.1
	c0.1,0.4,0.3,0.7,0.6,0.9c0.3,0.2,0.6,0.3,1,0.3h1.3c0.3,0,0.7-0.1,1-0.3c0.3-0.2,0.5-0.5,0.6-0.9c0.1-0.4,0.1-0.7,0-1.1
	c-0.1-0.4-0.3-0.7-0.6-0.9v-1.4c0.7-0.2,1.3-0.5,1.9-0.9l0.9,1c-0.1,0.4,0,0.8,0.2,1.1c0.2,0.3,0.4,0.6,0.7,0.8
	c0.3,0.2,0.7,0.2,1,0.2c0.3-0.1,0.7-0.2,0.9-0.5l1-1.1c0.2-0.3,0.4-0.6,0.4-1s0-0.7-0.1-1.1c-0.1-0.3-0.4-0.6-0.7-0.8
	c-0.3-0.2-0.6-0.3-1-0.2l-0.9-1c0.4-0.7,0.6-1.4,0.8-2.1H19c0.2,0.3,0.5,0.5,0.8,0.6c0.3,0.1,0.7,0.1,1,0c0.3-0.1,0.6-0.3,0.8-0.7
	c0.2-0.3,0.3-0.7,0.3-1.1v-1.5c0-0.5-0.2-0.9-0.5-1.3C21.2,9.7,20.8,9.5,20.3,9.5z M7.7,8.5C7.8,8.4,8,8.3,8.1,8.3
	c0.1,0,0.2,0,0.4,0.1c0.1,0.1,0.2,0.1,0.3,0.3C8.8,8.7,8.8,8.8,8.8,9s0,0.3-0.1,0.4C8.6,9.5,8.5,9.6,8.4,9.6
	C8.3,9.7,8.2,9.7,8.1,9.7C8,9.7,7.8,9.6,7.7,9.5C7.7,9.4,7.6,9.4,7.6,9.3c0-0.1-0.1-0.2-0.1-0.3c0-0.1,0-0.2,0.1-0.3
	C7.6,8.6,7.7,8.5,7.7,8.5z M7.1,12.7c-0.1,0-0.3-0.1-0.4-0.1c-0.1-0.1-0.2-0.2-0.2-0.3c0-0.1,0-0.3,0-0.4c0-0.1,0.1-0.3,0.2-0.4
	c0.1-0.1,0.2-0.2,0.3-0.2c0.1,0,0.3,0,0.4,0.1c0.1,0.1,0.2,0.2,0.3,0.3c0.1,0.1,0.1,0.3,0.1,0.4c0,0.2-0.1,0.4-0.2,0.5
	C7.4,12.6,7.3,12.7,7.1,12.7L7.1,12.7z M8.7,15.5c-0.1,0.1-0.2,0.2-0.3,0.2c-0.1,0-0.3,0-0.4,0c-0.1-0.1-0.2-0.1-0.3-0.3
	c-0.1-0.1-0.1-0.2-0.1-0.4c0-0.1,0-0.3,0.1-0.4c0.1-0.1,0.2-0.2,0.3-0.3c0.1-0.1,0.2-0.1,0.4,0c0.1,0,0.2,0.1,0.3,0.2
	c0.1,0.1,0.1,0.1,0.1,0.2c0,0.1,0,0.2,0,0.3c0,0.1,0,0.2,0,0.3C8.8,15.4,8.8,15.4,8.7,15.5z M9.3,12.7c-0.1,0-0.2,0-0.2-0.1
	s-0.1-0.1-0.2-0.2c-0.1-0.1-0.1-0.1-0.1-0.2c0-0.1,0-0.2,0-0.3c0-0.1,0-0.2,0-0.3c0-0.1,0.1-0.2,0.1-0.2C8.9,11.4,9,11.4,9,11.3
	c0.1,0,0.2-0.1,0.2-0.1c0.1,0,0.2,0,0.2,0.1c0.1,0,0.2,0.1,0.2,0.2c0.1,0.1,0.1,0.1,0.1,0.2c0,0.1,0,0.2,0,0.3
	c0,0.2-0.1,0.4-0.2,0.5C9.6,12.6,9.5,12.7,9.3,12.7z M11,7c0.2,0,0.3,0.1,0.5,0.2c0.1,0.1,0.2,0.3,0.2,0.5c0,0.2-0.1,0.3-0.2,0.4
	c-0.1,0.1-0.3,0.2-0.4,0.2s-0.3-0.1-0.4-0.2c-0.1-0.1-0.2-0.3-0.2-0.4c0-0.2,0.1-0.4,0.2-0.5C10.7,7.1,10.8,7,11,7z M11,16.9
	c-0.1,0-0.2,0-0.2-0.1c-0.1,0-0.2-0.1-0.2-0.2c-0.1-0.1-0.1-0.1-0.1-0.2c0-0.1,0-0.2,0-0.3c0-0.1,0-0.2,0-0.3c0-0.1,0.1-0.2,0.1-0.3
	s0.1-0.1,0.2-0.2c0.1,0,0.2-0.1,0.3-0.1s0.2,0,0.3,0.1c0.1,0,0.2,0.1,0.2,0.2s0.1,0.2,0.1,0.3c0,0.1,0,0.2,0,0.3c0,0.1,0,0.2,0,0.3
	c0,0.1-0.1,0.2-0.1,0.2c-0.1,0.1-0.1,0.1-0.2,0.2C11.2,16.9,11.1,17,11,16.9L11,16.9z M11,14.6c-0.1,0-0.3,0-0.4-0.1
	s-0.2-0.2-0.2-0.3c-0.1-0.1-0.1-0.3,0-0.4c0-0.1,0.1-0.3,0.2-0.4c0.1-0.1,0.2-0.2,0.3-0.2c0.1,0,0.3,0,0.4,0
	c0.1,0.1,0.2,0.1,0.3,0.3c0.1,0.1,0.1,0.3,0.1,0.4c0,0.1,0,0.2,0,0.3c0,0.1-0.1,0.2-0.1,0.2c-0.1,0.1-0.1,0.1-0.2,0.2
	C11.2,14.5,11.1,14.6,11,14.6L11,14.6z M11,10.8c-0.1,0-0.2,0-0.2-0.1s-0.2-0.1-0.2-0.2s-0.1-0.1-0.1-0.2c0-0.1,0-0.2,0-0.3
	c0-0.1,0-0.2,0-0.3c0-0.1,0.1-0.2,0.1-0.3s0.1-0.1,0.2-0.2c0.1,0,0.2-0.1,0.3-0.1s0.2,0,0.3,0.1c0.1,0,0.2,0.1,0.2,0.2
	s0.1,0.2,0.1,0.3c0,0.1,0,0.2,0,0.3c0,0.2-0.1,0.4-0.2,0.5C11.3,10.7,11.2,10.8,11,10.8L11,10.8z M13.3,8.5c0.1-0.1,0.2-0.2,0.3-0.2
	c0.1,0,0.3,0,0.4,0c0.1,0.1,0.2,0.1,0.3,0.3c0.1,0.1,0.1,0.2,0.1,0.4c0,0.1,0,0.3-0.1,0.4c-0.1,0.1-0.2,0.2-0.3,0.3
	c-0.1,0.1-0.2,0.1-0.4,0c-0.1,0-0.2-0.1-0.3-0.2c-0.1-0.1-0.1-0.1-0.1-0.2c0-0.1,0-0.2,0-0.3s0-0.2,0-0.3
	C13.2,8.6,13.3,8.5,13.3,8.5z M12.1,12c0-0.1,0-0.2,0-0.3c0-0.1,0.1-0.2,0.1-0.2c0.1-0.1,0.1-0.1,0.2-0.2c0.1,0,0.2-0.1,0.2-0.1
	c0.1,0,0.2,0,0.2,0.1s0.2,0.1,0.2,0.2c0.1,0.1,0.1,0.1,0.1,0.2c0,0.1,0,0.2,0,0.3c0,0.2-0.1,0.4-0.2,0.5c-0.1,0.1-0.3,0.2-0.5,0.2
	c-0.2,0-0.3-0.1-0.4-0.2C12.2,12.3,12.1,12.2,12.1,12L12.1,12z M14.2,15.5c-0.1,0.1-0.2,0.2-0.3,0.2c-0.1,0-0.3,0-0.4,0
	c-0.1-0.1-0.2-0.1-0.3-0.3c-0.1-0.1-0.1-0.2-0.1-0.4c0-0.1,0-0.3,0.1-0.4c0.1-0.1,0.2-0.2,0.3-0.3c0.1-0.1,0.2-0.1,0.4,0
	c0.1,0,0.2,0.1,0.3,0.2c0.1,0.1,0.1,0.1,0.1,0.2c0,0.1,0,0.2,0,0.3c0,0.1,0,0.2,0,0.3C14.3,15.3,14.3,15.4,14.2,15.5z M14.9,12.7
	c-0.1,0-0.3,0-0.4-0.1c-0.1-0.1-0.2-0.2-0.2-0.3c0-0.1-0.1-0.3,0-0.4c0-0.1,0.1-0.3,0.2-0.4c0.1-0.1,0.2-0.2,0.3-0.2
	c0.1,0,0.3,0,0.4,0c0.1,0.1,0.2,0.1,0.3,0.3c0.1,0.1,0.1,0.3,0.1,0.4c0,0.2-0.1,0.4-0.2,0.5C15.2,12.6,15.1,12.7,14.9,12.7z"/>
</svg>
