<svg width="26" height="15" viewBox="0 0 26 15" fill="none" xmlns="http://www.w3.org/2000/svg">
<path d="M17.7273 6.42857C19.6891 6.42857 21.2609 4.99286 21.2609 3.21429C21.2609 1.43571 19.6891 0 17.7273 0C15.7655 0 14.1818 1.43571 14.1818 3.21429C14.1818 4.99286 15.7655 6.42857 17.7273 6.42857ZM8.27273 6.42857C10.2345 6.42857 11.8064 4.99286 11.8064 3.21429C11.8064 1.43571 10.2345 0 8.27273 0C6.31091 0 4.72727 1.43571 4.72727 3.21429C4.72727 4.99286 6.31091 6.42857 8.27273 6.42857ZM8.27273 8.57143C5.51909 8.57143 0 9.825 0 12.3214V15H16.5455V12.3214C16.5455 9.825 11.0264 8.57143 8.27273 8.57143ZM17.7273 8.57143C17.3845 8.57143 16.9945 8.59286 16.5809 8.625C17.9518 9.525 18.9091 10.7357 18.9091 12.3214V15H26V12.3214C26 9.825 20.4809 8.57143 17.7273 8.57143Z" fill="#D5D920"/>
</svg>
