<svg width="20" height="22" viewBox="0 0 20 22" fill="none" xmlns="http://www.w3.org/2000/svg">
<path d="M4.26786 15.661C5.57163 15.4363 5.63247 16.0115 5.60639 16.7755C5.55424 18.2136 5.60639 19.6516 5.60639 21.0897C5.60639 21.7279 5.44125 22.0425 4.73721 21.9885C4.36668 21.966 3.9952 21.966 3.62467 21.9885C3.40961 22.0168 3.19113 21.9927 2.98669 21.9181C2.78225 21.8435 2.5975 21.7205 2.44719 21.559C2.29688 21.3975 2.18517 21.2018 2.12099 20.9877C2.05681 20.7736 2.04192 20.5469 2.07753 20.3257C2.07753 17.7102 2.00799 15.0858 2.07753 12.4613C2.19921 11.131 1.86023 10.5648 0.556463 10.7895C0.397587 10.8075 0.23729 10.8075 0.0784141 10.7895C-0.138881 10.457 0.147948 10.3311 0.304401 10.1603L9.33517 0.489284C9.73499 0.0578613 9.98706 -0.283682 10.5694 0.345477C13.6637 3.72496 16.8014 7.06848 19.9218 10.412C19.9655 10.479 19.9924 10.5562 20 10.6367C19.9565 10.6996 19.9044 10.7895 19.8522 10.7895C17.8879 10.8614 17.8879 10.8614 17.8879 12.8927C17.8879 15.3015 17.8879 17.7102 17.8879 20.0831C17.8879 20.7482 17.8879 21.4043 17.2099 21.7189C16.3939 22.016 15.5117 22.0598 14.6719 21.8447C14.3069 21.7908 14.4459 21.2695 14.4459 20.9459C14.4459 19.5078 14.4459 18.0698 14.4459 16.6317C14.4459 15.9396 14.3938 15.2655 15.5063 15.3554C13.768 13.4859 12.0296 11.6104 10.2913 9.72892C9.96098 9.37839 9.78715 9.72892 9.59593 9.89071L4.26786 15.661Z" fill="#172D4A"/>
</svg>
