<svg width="20" height="21" viewBox="0 0 20 21" fill="none" xmlns="http://www.w3.org/2000/svg">
<path d="M4.26786 14.9491C5.57163 14.7346 5.63247 15.2837 5.60639 16.013C5.55424 17.3857 5.60639 18.7584 5.60639 20.1311C5.60639 20.7402 5.44125 21.0405 4.73721 20.989C4.36668 20.9676 3.9952 20.9676 3.62467 20.989C3.40961 21.016 3.19113 20.993 2.98669 20.9218C2.78225 20.8506 2.5975 20.7332 2.44719 20.579C2.29688 20.4248 2.18517 20.2381 2.12099 20.0337C2.05681 19.8293 2.04192 19.6129 2.07753 19.4019C2.07753 16.9052 2.00799 14.4 2.07753 11.8948C2.19921 10.6251 1.86023 10.0846 0.556463 10.2991C0.397587 10.3162 0.23729 10.3162 0.0784141 10.2991C-0.138881 9.98163 0.147948 9.86152 0.304401 9.69851L9.33517 0.467044C9.73499 0.0552313 9.98706 -0.270787 10.5694 0.329773C13.6637 3.55564 16.8014 6.74719 19.9218 9.93874C19.9655 10.0027 19.9924 10.0764 20 10.1532C19.9565 10.2133 19.9044 10.2991 19.8522 10.2991C17.8879 10.3677 17.8879 10.3677 17.8879 12.3067C17.8879 14.6059 17.8879 16.9052 17.8879 19.1702C17.8879 19.8051 17.8879 20.4314 17.2099 20.7317C16.3939 21.0153 15.5117 21.0571 14.6719 20.8518C14.3069 20.8003 14.4459 20.3027 14.4459 19.9938C14.4459 18.6211 14.4459 17.2484 14.4459 15.8757C14.4459 15.2151 14.3938 14.5716 15.5063 14.6574C13.768 12.8729 12.0296 11.0827 10.2913 9.2867C9.96098 8.9521 9.78715 9.2867 9.59593 9.44113L4.26786 14.9491Z" fill="#F2F2F2"/>
</svg>
